<svg width="20" height="21" viewBox="0 0 20 21" fill="none" xmlns="http://www.w3.org/2000/svg">
<path d="M19.8689 10.478C19.8698 9.7966 19.8117 9.11637 19.6955 8.44479H10.1997V12.296H15.6385C15.5272 12.9111 15.2916 13.4974 14.946 14.0197C14.6004 14.5419 14.1518 14.9893 13.6274 15.3347V17.8346H16.8733C18.7739 16.0944 19.8689 13.5209 19.8689 10.478Z" fill="#4285F4"/>
<path d="M10.1997 20.25C12.9169 20.25 15.2049 19.3639 16.8733 17.8362L13.6274 15.3364C12.7239 15.9447 11.5604 16.2919 10.1997 16.2919C7.57328 16.2919 5.34408 14.5336 4.54693 12.1643H1.20312V14.7406C2.0412 16.3967 3.32629 17.7889 4.91494 18.7618C6.50358 19.7347 8.33324 20.2499 10.1997 20.25Z" fill="#34A853"/>
<path d="M4.54686 12.164C4.12543 10.9224 4.12543 9.57793 4.54686 8.33639V5.76013H1.20305C0.498032 7.15333 0.130859 8.69096 0.130859 10.2502C0.130859 11.8094 0.498032 13.347 1.20305 14.7402L4.54686 12.164Z" fill="#FBBC04"/>
<path d="M10.1997 4.20879C11.6356 4.18549 13.0231 4.72429 14.0623 5.70872L16.9362 2.85469C15.1139 1.15488 12.6996 0.221659 10.1997 0.250656C8.33324 0.250741 6.50358 0.765984 4.91494 1.73886C3.32629 2.71174 2.0412 4.10397 1.20312 5.7601L4.54693 8.33636C5.34408 5.96704 7.57328 4.20879 10.1997 4.20879Z" fill="#EA4335"/>
</svg>
